<?xml version="1.0" standalone="no"?>
<!DOCTYPE svg PUBLIC "-//W3C//DTD SVG 20010904//EN"
 "http://www.w3.org/TR/2001/REC-SVG-20010904/DTD/svg10.dtd">
<svg version="1.0" xmlns="http://www.w3.org/2000/svg"
 width="900.000000pt" height="900.000000pt" viewBox="0 0 900.000000 900.000000"
 preserveAspectRatio="xMidYMid meet">
<metadata>
Created by potrace 1.10, written by Peter Selinger 2001-2011
</metadata>
<g transform="translate(0.000000,900.000000) scale(0.100000,-0.100000)"
fill="#ff0000" stroke="none">
<path d="M5840 8320 c-128 -11 -354 -50 -395 -69 -11 -5 -47 -19 -80 -30 -53
-17 -97 -37 -265 -121 -78 -38 -104 -54 -241 -146 -74 -49 -173 -120 -221
-159 -47 -38 -96 -78 -109 -87 -67 -52 -355 -347 -449 -462 -36 -44 -79 -95
-96 -115 -84 -98 -275 -363 -317 -441 -35 -64 -53 -65 -133 -6 -68 49 -162
101 -396 217 -44 22 -152 64 -233 90 -49 16 -94 34 -99 39 -6 6 -19 10 -30 10
-20 0 -90 21 -131 39 -30 14 -241 54 -365 71 -162 22 -547 12 -661 -16 -31 -8
-73 -14 -92 -14 -20 0 -38 -4 -41 -9 -4 -5 -24 -12 -46 -16 -22 -4 -42 -11
-46 -16 -3 -5 -14 -9 -24 -9 -11 0 -34 -6 -52 -14 -18 -8 -71 -29 -118 -47
-93 -35 -254 -112 -278 -131 -8 -7 -22 -17 -32 -23 -130 -73 -226 -147 -353
-271 -102 -99 -204 -238 -261 -354 -15 -30 -31 -62 -36 -70 -4 -8 -16 -33 -25
-55 -9 -22 -20 -49 -25 -60 -18 -38 -38 -110 -56 -200 -16 -74 -19 -133 -18
-335 1 -216 3 -256 23 -335 12 -49 26 -109 31 -133 11 -47 35 -126 50 -157 35
-77 65 -144 74 -170 10 -25 48 -98 115 -224 8 -14 17 -28 20 -31 9 -8 78 -114
82 -126 4 -13 33 -49 153 -194 144 -174 362 -373 573 -526 91 -66 133 -93 234
-152 21 -12 58 -33 82 -47 59 -34 254 -129 412 -200 17 -8 74 -34 128 -59 53
-26 101 -46 106 -46 4 0 30 -12 57 -26 27 -15 119 -62 204 -106 85 -44 180
-95 210 -113 30 -18 100 -58 155 -88 55 -30 124 -73 154 -94 29 -21 62 -41 72
-45 27 -10 268 -171 304 -202 17 -15 50 -38 75 -53 36 -21 132 -95 160 -123 3
-3 21 -16 40 -30 142 -99 471 -405 630 -585 54 -60 108 -121 121 -135 23 -25
97 -122 129 -171 8 -12 27 -36 41 -53 14 -17 29 -38 32 -46 4 -8 16 -28 27
-45 11 -16 25 -42 31 -57 11 -27 29 -38 29 -18 0 31 -192 380 -278 505 -83
120 -108 152 -206 269 -196 233 -364 402 -601 604 -95 81 -427 327 -516 382
-40 25 -77 50 -83 55 -17 15 -75 55 -79 55 -2 0 -80 45 -172 100 -92 56 -197
116 -234 135 -80 40 -322 185 -406 244 -33 23 -78 53 -100 68 -96 66 -310 251
-426 370 -162 165 -332 381 -401 508 -50 90 -128 249 -128 259 0 5 -6 17 -13
25 -12 14 -22 45 -68 211 -41 147 -41 456 0 575 5 17 20 59 32 94 53 151 146
279 309 426 104 93 172 136 390 244 25 13 54 27 64 33 36 19 192 66 246 73 30
4 60 11 66 16 18 15 329 22 419 10 142 -18 249 -40 348 -72 31 -11 64 -19 72
-19 8 0 31 -7 52 -16 21 -9 47 -20 58 -25 37 -15 240 -110 295 -139 123 -63
343 -198 380 -232 14 -13 37 -31 52 -40 15 -10 52 -38 83 -64 31 -25 62 -43
69 -41 6 3 38 54 70 113 31 60 91 161 131 224 41 63 79 124 84 135 6 11 23 36
38 56 15 21 42 56 58 78 85 118 273 339 375 441 236 236 510 426 705 489 39
12 79 26 90 31 68 29 253 61 353 61 15 0 38 0 52 0 42 0 194 -24 205 -32 6 -5
31 -11 55 -15 25 -4 50 -10 55 -14 6 -4 26 -11 45 -15 19 -4 40 -11 45 -14 6
-4 30 -15 55 -24 39 -15 223 -126 257 -156 7 -6 17 -11 23 -11 6 0 67 -55 136
-122 91 -89 146 -153 197 -228 70 -104 157 -263 157 -286 0 -7 6 -25 14 -41
27 -55 43 -99 79 -233 9 -30 20 -73 27 -95 29 -103 50 -332 50 -546 0 -210
-19 -476 -41 -570 -6 -26 -14 -71 -19 -100 -5 -30 -18 -92 -30 -139 -11 -47
-25 -104 -30 -126 -5 -23 -18 -69 -29 -102 -12 -34 -21 -70 -21 -80 0 -10 -9
-45 -20 -77 -27 -77 -26 -79 18 -71 20 4 71 12 112 19 97 17 107 23 116 60 3
17 11 38 15 47 5 8 21 47 35 85 14 39 33 87 40 109 8 21 24 57 35 80 31 62
104 291 165 513 62 226 74 281 99 438 36 224 45 336 45 575 -1 428 -30 611
-155 960 -20 54 -104 226 -142 292 -128 216 -323 422 -548 578 -59 40 -121 76
-225 126 -41 20 -95 47 -120 59 -75 37 -208 74 -345 94 -173 26 -251 30 -365
21z"/>
<path d="M5384 5215 c-50 -7 -100 -18 -112 -24 -11 -6 -30 -11 -41 -11 -28 0
-210 -90 -263 -130 -159 -121 -314 -343 -372 -535 -10 -33 -25 -78 -32 -100
-8 -23 -14 -52 -14 -65 0 -14 -7 -43 -14 -65 -43 -123 -19 -626 34 -726 6 -10
10 -28 10 -41 0 -27 85 -290 106 -328 17 -32 54 -117 54 -125 0 -3 11 -30 24
-58 25 -55 138 -397 151 -457 4 -19 11 -39 15 -45 5 -5 13 -35 20 -65 6 -30
15 -73 19 -95 5 -22 16 -69 25 -105 8 -36 16 -81 16 -101 0 -20 5 -49 10 -65
28 -81 53 -676 31 -734 -15 -38 -25 -177 -13 -165 6 6 15 33 21 60 5 28 14 68
20 90 5 22 17 101 27 175 14 111 16 182 10 405 -3 149 -10 297 -16 330 -5 33
-12 89 -16 125 -3 36 -9 74 -14 85 -5 11 -14 47 -21 80 -6 33 -20 89 -31 125
-10 36 -25 88 -33 115 -18 66 -54 190 -70 240 -30 93 -45 149 -45 169 0 12 -4
26 -9 32 -13 13 -40 193 -47 309 -3 55 -7 105 -9 111 -7 24 18 284 35 358 31
135 41 171 51 181 5 5 9 17 9 27 0 10 12 42 26 71 87 173 255 328 404 372 76
23 247 40 274 27 11 -6 50 -13 86 -17 71 -6 241 -60 287 -90 15 -11 44 -27 63
-37 83 -42 253 -216 303 -310 14 -26 34 -60 46 -77 12 -17 31 -52 42 -78 11
-26 25 -57 30 -68 18 -40 79 -240 79 -263 0 -12 4 -30 9 -40 5 -9 17 -55 26
-102 24 -121 21 -115 49 -97 13 9 41 19 62 22 21 4 75 18 119 31 44 13 102 27
128 30 26 4 50 11 53 15 3 5 20 9 39 9 18 0 60 6 92 14 158 39 569 24 665 -25
10 -5 25 -9 34 -9 18 0 58 -16 154 -63 178 -87 325 -303 380 -559 15 -65 8
-280 -10 -343 -6 -22 -17 -58 -23 -80 -6 -22 -19 -56 -28 -75 -10 -19 -25 -53
-34 -75 -9 -22 -20 -47 -25 -55 -5 -8 -25 -42 -44 -76 -20 -34 -43 -67 -52
-75 -9 -7 -27 -30 -40 -50 -31 -49 -183 -209 -265 -278 -94 -79 -102 -85 -219
-163 -58 -39 -112 -76 -120 -83 -27 -23 -413 -212 -490 -240 -41 -15 -83 -31
-94 -37 -10 -5 -44 -18 -75 -28 -31 -10 -87 -30 -125 -44 -38 -14 -79 -26 -92
-26 -12 0 -25 -4 -29 -9 -3 -5 -20 -12 -38 -16 -17 -4 -70 -15 -117 -25 -47
-10 -117 -26 -156 -34 -40 -9 -84 -16 -98 -16 -14 0 -26 -5 -26 -11 0 -13 130
-4 159 11 9 4 45 13 81 19 168 30 242 45 355 74 33 9 110 28 170 43 94 22 189
50 245 71 8 3 49 18 90 33 135 50 215 80 235 90 11 5 45 19 75 30 30 12 64 26
74 32 11 6 80 42 155 80 75 38 157 85 184 104 26 19 52 34 59 34 6 0 18 7 27
15 25 24 140 105 149 105 4 0 21 12 38 28 16 15 59 52 94 82 133 114 285 289
357 410 118 199 162 328 184 536 10 96 10 128 -5 230 -16 111 -37 198 -55 234
-5 9 -12 30 -16 48 -7 35 -49 118 -71 143 -8 8 -14 20 -14 26 0 5 -12 23 -26
39 -14 16 -31 40 -39 54 -32 60 -213 199 -335 258 -91 43 -256 90 -405 114
-106 17 -520 17 -640 0 -136 -20 -203 -31 -285 -48 -41 -9 -92 -18 -112 -21
-36 -5 -37 -4 -48 39 -36 137 -78 256 -126 353 -71 142 -148 282 -164 295 -3
3 -39 44 -79 93 -106 127 -264 255 -392 318 -32 16 -106 45 -166 65 -59 19
-117 39 -128 44 -24 10 -242 41 -276 39 -13 -1 -65 -7 -115 -14z"/>
<path d="M6038 1083 c12 -2 32 -2 45 0 12 2 2 4 -23 4 -25 0 -35 -2 -22 -4z"/>
</g>
</svg>
