 <svg  version="1.0" xmlns="http://www.w3.org/2000/svg"  width="900.000000pt" height="903.000000pt" viewBox="0 0 900.000000 903.000000"  preserveAspectRatio="xMidYMid meet">  <g transform="translate(0.000000,903.000000) scale(0.100000,-0.100000)" fill="#ff0000" stroke="none"> <path d="M6200 9015 c0 -11 11 -15 40 -15 29 0 40 4 40 15 0 11 -11 15 -40 15 -29 0 -40 -4 -40 -15z"/> <path d="M6010 8967 c-8 -7 -23 -24 -33 -39 -15 -23 -24 -28 -60 -28 -24 0 -52 -7 -63 -15 -25 -19 -64 -19 -64 -1 0 8 6 16 13 19 6 2 9 8 4 12 -4 5 -19 3 -35 -4 -15 -7 -43 -20 -62 -29 -19 -9 -47 -28 -62 -42 -16 -14 -45 -28 -65 -32 -137 -25 -158 -33 -161 -61 -3 -21 -9 -27 -26 -27 -13 0 -29 7 -36 15 -11 14 -16 14 -35 1 -12 -8 -42 -17 -66 -21 -83 -12 -105 -55 -29 -55 34 0 41 -4 46 -25 10 -40 -37 -96 -153 -183 -27 -20 -57 -45 -67 -54 -10 -10 -23 -18 -31 -18 -7 0 -15 -3 -17 -8 -1 -4 -15 -17 -30 -28 -14 -11 -67 -67 -116 -125 -50 -57 -113 -129 -141 -159 -28 -30 -51 -60 -51 -65 0 -6 -37 -51 -82 -99 -77 -82 -83 -91 -88 -139 -5 -47 -7 -51 -37 -59 -27 -7 -33 -13 -33 -36 0 -32 -16 -52 -41 -52 -10 0 -36 23 -59 52 -22 28 -50 58 -60 65 -11 8 -20 22 -20 32 0 20 -19 31 -52 31 -21 0 -60 35 -71 63 -8 21 -126 97 -151 97 -11 0 -41 16 -65 35 -24 19 -60 37 -80 41 -37 6 -87 28 -151 66 -19 11 -64 37 -100 56 -36 20 -83 46 -105 59 -22 12 -47 26 -55 30 -8 3 -31 16 -50 28 -19 12 -46 25 -60 29 -14 4 -38 13 -55 21 -73 33 -104 45 -117 45 -7 0 -22 7 -32 15 -11 8 -32 15 -47 15 -14 0 -32 7 -39 15 -16 19 -86 20 -93 1 -3 -8 -23 -16 -44 -19 -21 -2 -52 -10 -69 -17 -17 -7 -40 -10 -50 -6 -18 7 -18 8 1 22 29 21 4 34 -67 34 -31 0 -59 4 -62 9 -9 14 -162 24 -185 11 -16 -8 -26 -7 -43 4 -31 20 -148 31 -186 18 -21 -7 -33 -7 -41 1 -8 8 -20 8 -44 -1 -20 -7 -94 -12 -188 -12 -108 -1 -166 -5 -194 -15 -22 -8 -49 -15 -60 -15 -11 0 -48 -10 -83 -22 -44 -16 -62 -28 -62 -40 0 -19 19 -24 35 -10 6 4 37 16 70 26 33 9 74 22 92 27 17 5 43 7 57 3 15 -3 32 -2 39 4 6 5 87 12 178 16 157 5 167 5 184 -14 13 -14 31 -20 61 -20 57 0 73 -7 67 -31 -4 -15 0 -19 19 -19 13 0 29 5 35 11 21 21 356 -3 418 -31 30 -14 107 -41 133 -47 12 -3 22 -9 22 -14 0 -4 17 -11 38 -15 42 -8 81 -33 82 -51 0 -18 -41 -16 -64 2 -11 8 -32 15 -47 15 -14 0 -43 7 -62 15 -20 8 -47 15 -61 15 -13 0 -37 7 -52 15 -16 8 -49 15 -74 15 -26 0 -51 5 -56 10 -6 6 -42 13 -80 16 -38 3 -86 10 -107 16 -28 8 -43 8 -60 0 -12 -7 -48 -13 -80 -14 -90 -5 -73 -22 28 -28 50 -4 97 -9 105 -13 8 -4 46 -8 85 -10 57 -2 70 -6 73 -20 3 -15 -8 -17 -100 -17 -124 0 -271 -11 -262 -19 3 -3 101 -8 217 -11 203 -6 238 -10 301 -42 10 -5 44 -12 75 -15 31 -3 61 -9 66 -13 6 -4 26 -11 45 -15 39 -7 109 -30 157 -51 17 -8 38 -14 46 -14 9 0 18 -4 21 -9 3 -5 18 -12 33 -16 37 -9 140 -61 159 -80 9 -8 22 -15 30 -15 9 0 22 -7 30 -15 9 -8 24 -15 35 -15 10 0 19 -4 19 -9 0 -5 10 -13 22 -17 44 -14 124 -69 179 -123 59 -59 84 -81 164 -146 54 -43 115 -105 115 -117 0 -24 -57 0 -100 41 -27 26 -63 55 -91 73 -14 9 -32 23 -40 31 -22 21 -118 87 -127 87 -13 0 -122 59 -157 85 -16 12 -48 30 -70 39 -22 10 -53 24 -68 32 -16 8 -33 12 -37 9 -11 -7 -96 14 -130 32 -14 7 -34 13 -45 13 -11 0 -29 7 -39 15 -11 8 -31 15 -44 15 -13 0 -45 6 -71 14 -91 28 -180 46 -233 46 -29 0 -75 7 -102 15 -29 9 -89 15 -143 15 -52 0 -102 4 -111 9 -9 4 -38 11 -64 14 -43 6 -50 4 -72 -20 -28 -30 -99 -41 -183 -28 -40 6 -44 9 -26 16 12 4 27 18 33 30 17 31 1 37 -88 38 -53 0 -80 5 -92 16 -21 19 -51 19 -76 0 -10 -8 -31 -15 -46 -15 -33 0 -58 -9 -58 -21 0 -15 68 -10 84 7 24 24 61 14 61 -16 0 -23 -5 -26 -54 -32 -29 -3 -58 -11 -64 -17 -17 -17 -97 -14 -97 3 0 7 14 16 31 20 17 3 28 10 24 16 -9 15 -38 12 -61 -5 -10 -8 -27 -15 -36 -15 -9 0 -23 -7 -31 -15 -8 -8 -34 -24 -58 -36 -24 -12 -58 -33 -76 -46 -17 -12 -36 -23 -41 -23 -5 0 -15 -7 -22 -15 -7 -8 -23 -15 -35 -15 -14 0 -43 -19 -72 -45 -27 -25 -58 -45 -70 -45 -14 0 -33 -14 -50 -37 -15 -20 -40 -44 -55 -53 -15 -9 -42 -38 -60 -65 -18 -27 -43 -55 -56 -61 -46 -23 -72 -53 -72 -84 0 -40 -33 -61 -80 -51 -24 5 -30 9 -19 13 9 4 19 15 21 26 8 29 -18 18 -64 -29 -33 -32 -36 -38 -23 -49 14 -12 14 -15 0 -30 -8 -9 -15 -21 -15 -26 0 -18 -77 -96 -84 -85 -13 20 -22 12 -50 -41 -15 -29 -31 -60 -36 -68 -30 -53 -91 -192 -101 -230 -6 -25 -20 -57 -30 -72 -11 -14 -22 -41 -25 -60 -4 -18 -10 -37 -14 -43 -4 -5 -10 -28 -14 -50 -4 -22 -13 -53 -20 -70 -20 -44 -46 -127 -46 -146 0 -9 -7 -30 -15 -45 -8 -16 -15 -43 -15 -61 0 -21 -7 -37 -22 -47 -25 -18 -42 -3 -29 23 5 9 12 52 16 96 7 80 26 156 51 207 8 14 14 35 14 46 0 12 4 23 9 27 5 3 13 20 16 37 4 18 14 38 21 46 8 7 14 24 14 37 0 13 4 26 9 29 5 3 12 18 15 33 4 16 13 43 22 60 8 18 21 47 29 65 38 89 58 128 66 134 5 3 9 13 9 23 0 9 13 30 28 47 15 16 41 55 57 86 15 32 51 80 79 107 59 57 81 81 119 137 25 38 65 84 153 177 27 29 34 41 25 50 -22 22 -10 46 54 113 36 38 70 77 75 86 20 34 -8 27 -54 -13 -25 -22 -51 -37 -57 -34 -12 8 -25 -5 -88 -85 -24 -30 -52 -60 -62 -67 -30 -22 -32 3 -2 45 15 22 35 50 43 62 8 12 20 28 25 34 21 22 85 116 80 116 -16 0 -164 -147 -176 -174 -5 -12 -20 -39 -33 -61 -22 -36 -23 -42 -9 -57 14 -16 14 -18 -1 -24 -9 -3 -16 -12 -16 -19 0 -17 -30 -75 -39 -75 -7 0 -60 -75 -106 -148 -5 -9 -16 -22 -23 -30 -6 -7 -12 -18 -12 -23 0 -5 -7 -9 -15 -9 -17 0 -21 45 -6 55 6 3 20 26 32 50 12 25 26 45 30 45 4 0 11 10 15 22 7 24 16 35 62 83 18 18 30 35 25 38 -14 8 -73 6 -73 -3 0 -5 -6 -15 -13 -22 -20 -21 -137 -199 -137 -209 0 -4 -9 -16 -19 -26 -32 -30 -70 -110 -58 -122 10 -10 -13 -63 -139 -313 -19 -37 -34 -73 -34 -81 0 -8 -7 -28 -15 -43 -8 -16 -15 -45 -15 -64 -1 -19 -7 -46 -15 -60 -8 -14 -14 -41 -15 -61 0 -20 -7 -50 -16 -67 -17 -35 -16 -73 3 -79 6 -2 14 6 18 18 7 20 8 20 17 6 11 -20 -21 -129 -37 -124 -5 2 -11 20 -13 41 -5 61 -27 37 -30 -34 -2 -38 -9 -68 -18 -77 -8 -9 -14 -34 -14 -62 0 -38 -5 -52 -26 -72 -24 -22 -26 -28 -20 -86 3 -36 1 -65 -4 -68 -6 -4 -10 -35 -10 -70 0 -35 -5 -67 -10 -70 -6 -4 -10 -59 -10 -131 0 -99 3 -129 15 -141 11 -11 14 -25 9 -50 -5 -25 -3 -38 7 -44 8 -5 15 -27 16 -51 6 -175 14 -273 23 -282 5 -5 10 -24 10 -40 0 -17 7 -44 15 -60 8 -15 15 -36 15 -45 0 -9 6 -28 14 -43 8 -15 17 -40 21 -57 4 -17 11 -31 16 -31 5 0 9 -6 9 -14 0 -20 47 -111 65 -126 8 -7 15 -22 15 -34 0 -12 22 -46 50 -76 35 -39 50 -64 50 -84 0 -16 13 -44 29 -65 15 -20 31 -45 35 -56 3 -11 31 -47 61 -80 30 -33 55 -64 55 -69 0 -5 27 -34 60 -66 33 -32 60 -61 60 -66 0 -5 39 -46 88 -92 48 -45 119 -114 157 -152 39 -39 74 -70 79 -70 4 0 25 -12 45 -27 52 -40 96 -63 119 -63 11 0 22 -7 26 -15 3 -8 12 -15 19 -15 8 0 61 -34 118 -76 57 -42 109 -78 116 -81 7 -3 15 -13 18 -22 3 -9 26 -30 51 -46 26 -16 53 -40 61 -52 9 -13 21 -23 28 -23 7 0 33 -18 58 -40 25 -22 49 -40 54 -40 5 0 16 -9 26 -20 9 -11 24 -20 32 -20 8 0 15 -4 15 -10 0 -5 11 -10 24 -10 14 0 40 -15 62 -35 20 -19 45 -35 54 -35 10 0 23 -7 30 -15 7 -8 23 -15 35 -15 14 0 34 -13 51 -32 24 -29 42 -44 103 -83 120 -77 242 -167 283 -208 18 -18 62 -55 98 -83 36 -27 74 -58 85 -70 11 -11 52 -45 90 -74 39 -30 90 -72 115 -94 118 -107 487 -492 562 -586 23 -30 46 -56 50 -58 5 -2 8 -10 8 -18 0 -8 8 -22 18 -32 30 -30 96 -134 131 -207 18 -38 39 -83 47 -98 8 -16 14 -34 14 -42 0 -7 7 -18 15 -25 8 -7 15 -24 15 -39 0 -14 6 -38 14 -52 7 -14 16 -47 20 -72 4 -26 11 -49 17 -52 5 -4 9 -25 9 -48 1 -23 7 -60 15 -82 8 -22 15 -60 15 -85 0 -25 5 -63 11 -85 6 -22 14 -96 19 -164 6 -98 11 -126 24 -133 9 -5 16 -18 16 -30 0 -17 3 -18 15 -8 21 17 35 4 35 -33 0 -18 7 -45 15 -61 9 -17 15 -56 15 -98 0 -64 2 -72 31 -100 l31 -31 1 -130 c2 -94 5 -131 15 -134 8 -3 12 6 12 25 0 31 34 117 50 127 6 3 10 14 10 23 0 9 7 35 16 57 13 35 21 43 58 54 33 9 47 20 59 47 9 19 21 34 27 34 5 0 10 5 10 11 0 6 -8 8 -19 4 -24 -7 -27 -2 -36 56 -7 50 9 79 46 79 16 0 19 -7 19 -49 0 -48 12 -72 25 -51 12 19 33 10 40 -17 6 -25 8 -26 17 -10 7 13 5 32 -8 67 -16 45 -16 50 -1 74 9 14 17 41 17 60 0 19 5 38 10 41 6 3 10 14 10 24 0 10 6 24 14 30 14 12 14 55 0 132 -4 26 -1 39 10 48 15 13 15 16 1 31 -14 15 -14 18 0 30 8 7 15 23 15 36 0 12 4 25 8 28 18 11 51 -7 56 -30 11 -42 104 -49 98 -7 -3 24 24 44 48 34 9 -3 36 -20 61 -38 25 -17 54 -31 64 -30 12 1 21 -5 23 -18 2 -11 6 -27 9 -35 9 -23 21 26 22 92 1 59 8 72 35 62 14 -5 16 -16 10 -65 -4 -32 -4 -66 0 -75 10 -25 34 1 41 45 3 20 10 43 14 51 5 9 12 35 16 58 9 58 35 57 35 0 0 -50 13 -80 24 -53 9 24 7 78 -3 95 -7 10 -4 18 9 27 11 8 22 32 26 60 4 25 17 62 30 81 13 19 24 44 25 56 1 69 12 146 25 179 8 20 14 53 14 72 0 53 28 47 32 -7 2 -24 8 -42 13 -41 15 4 18 72 4 89 -9 11 -8 14 9 14 17 0 22 8 27 38 4 20 11 47 18 60 8 17 8 25 -1 34 -16 16 -15 60 3 84 8 10 15 27 15 37 0 10 11 22 24 27 18 6 27 20 32 45 13 73 95 194 171 255 68 55 154 143 164 167 4 12 24 29 44 37 21 9 35 22 35 33 1 21 49 64 175 159 50 38 95 72 100 76 27 23 216 158 220 158 3 0 24 15 48 33 24 17 54 39 67 47 12 8 48 33 79 55 32 22 64 45 73 50 53 33 134 89 143 99 6 7 28 23 50 36 22 13 46 30 54 38 8 8 33 25 55 39 23 14 46 30 51 37 16 17 126 115 163 145 88 69 562 558 562 579 0 11 49 76 89 117 25 27 89 116 116 164 6 10 20 31 33 47 12 16 33 44 47 63 13 18 34 39 47 45 13 6 24 20 26 31 2 11 16 36 32 55 l28 35 26 -24 25 -23 6 36 c4 20 12 36 17 36 6 0 8 12 5 30 -4 20 -2 32 8 37 7 4 13 17 12 28 -2 16 4 20 28 20 24 0 29 -4 27 -20 -2 -11 -3 -36 -3 -55 0 -57 -102 -191 -116 -152 -9 24 -33 13 -33 -15 0 -16 -7 -37 -15 -47 -8 -11 -15 -29 -15 -41 0 -11 -7 -31 -16 -44 -10 -14 -13 -26 -7 -32 10 -10 78 63 118 126 10 16 37 50 60 75 23 25 53 68 66 95 13 28 30 56 37 64 30 32 43 61 37 81 -5 15 -1 26 11 34 20 15 11 38 -11 29 -9 -3 -15 1 -15 11 0 9 5 16 10 16 6 0 10 9 10 21 0 11 14 34 30 51 17 16 30 39 30 49 0 11 7 27 15 35 8 9 15 28 15 43 0 16 7 34 15 41 9 8 15 29 15 55 0 39 23 101 43 116 14 10 77 142 77 161 0 10 11 36 25 57 13 22 27 51 31 65 3 14 10 26 14 26 5 0 22 26 38 58 16 31 42 82 59 112 16 30 33 72 37 93 4 20 11 37 16 37 5 0 12 10 15 23 4 12 24 42 45 67 20 25 41 56 45 70 4 14 18 41 30 60 12 19 26 46 30 60 4 14 14 34 21 45 8 11 14 30 14 42 0 13 5 23 10 23 6 0 10 11 10 25 0 34 35 163 54 200 9 17 16 50 16 76 0 25 6 51 13 57 9 10 13 76 14 250 2 220 1 241 -18 292 -45 116 -69 140 -69 67 0 -27 6 -52 15 -61 11 -11 15 -40 15 -122 0 -110 -14 -184 -35 -184 -27 0 -33 84 -8 112 15 17 15 23 3 51 -7 18 -16 73 -19 123 -4 54 -12 98 -20 107 -8 11 -11 28 -7 50 6 34 -9 97 -24 97 -5 0 -12 10 -16 22 -3 12 -17 33 -30 47 -13 14 -24 31 -24 38 0 6 -6 18 -13 25 -7 7 -16 21 -20 31 -10 25 -27 21 -27 -8 0 -14 -5 -25 -10 -25 -16 0 -24 31 -13 49 8 12 7 22 -3 36 -12 16 -18 17 -34 7 -14 -8 -21 -8 -26 -1 -4 6 -1 15 6 19 18 11 -8 47 -42 59 -47 17 -118 97 -244 277 -18 25 -46 56 -64 69 -18 14 -76 65 -128 115 -84 81 -94 95 -90 121 4 24 -1 34 -31 56 -20 15 -39 31 -43 37 -8 12 -175 116 -238 148 -25 13 -51 29 -58 36 -7 6 -22 12 -31 12 -10 0 -24 7 -31 15 -7 8 -27 15 -45 15 -18 0 -38 7 -45 15 -7 9 -30 15 -54 15 -22 0 -50 7 -60 15 -11 8 -33 15 -48 15 -40 0 -78 27 -78 56 0 20 -7 24 -47 30 -25 4 -88 4 -138 1 -69 -4 -100 -2 -120 9 -33 17 -67 18 -83 2 -9 -9 -17 -9 -34 -1 -20 10 -100 21 -206 29 -20 1 -42 12 -57 28 l-24 26 -179 0 c-127 0 -182 4 -190 12 -10 10 -18 7 -38 -15 -13 -15 -28 -27 -32 -27 -18 0 -51 32 -54 52 -4 26 -18 32 -38 15z m1465 -331 c33 -31 16 -44 -28 -23 -18 9 -40 18 -49 21 -31 9 -20 26 16 26 23 0 44 -8 61 -24z m-4491 -255 c16 -6 13 -11 -23 -30 -27 -13 -51 -19 -64 -15 -20 6 -20 7 -1 17 10 6 23 16 27 24 9 14 31 16 61 4z m3726 -371 c6 -11 8 -25 5 -30 -11 -18 -63 -10 -100 14 -40 27 -33 34 37 35 38 1 49 -3 58 -19z m197 -29 c55 -40 4 -55 -79 -23 -54 20 -62 27 -54 41 9 14 106 1 133 -18z m-4103 -28 c28 -9 65 -22 83 -30 17 -7 42 -13 56 -13 14 0 28 -4 31 -9 3 -5 27 -12 53 -15 27 -4 62 -13 78 -20 17 -8 44 -19 60 -26 17 -6 47 -20 67 -31 20 -10 45 -19 55 -19 10 0 27 -7 37 -15 11 -8 26 -15 34 -15 7 0 20 -7 28 -15 9 -8 24 -15 35 -15 10 0 19 -3 19 -8 0 -4 24 -18 53 -32 111 -53 227 -151 479 -403 94 -94 116 -127 83 -127 -8 0 -15 4 -15 8 0 5 -30 30 -66 57 -36 26 -74 56 -83 65 -9 10 -38 25 -66 34 -36 11 -55 25 -67 46 -13 23 -24 30 -47 30 -16 0 -31 4 -33 8 -1 5 -43 32 -93 61 -49 29 -97 56 -105 61 -8 5 -64 34 -125 65 -60 32 -132 69 -160 83 -46 23 -68 33 -150 68 -16 7 -60 27 -96 43 -36 17 -73 31 -82 31 -9 0 -19 5 -22 10 -7 11 -88 50 -103 50 -4 0 -24 14 -42 30 -36 32 -46 35 -70 20 -17 -10 -40 5 -40 26 0 21 148 19 214 -3z m2611 8 c3 -6 -4 -15 -17 -22 -12 -6 -31 -20 -42 -30 -17 -16 -18 -22 -8 -45 11 -23 9 -30 -20 -67 -18 -23 -45 -55 -60 -72 -16 -16 -31 -38 -34 -47 -3 -10 -15 -18 -27 -18 -16 0 -18 -3 -9 -12 7 -7 12 -25 12 -41 0 -22 -4 -28 -17 -25 -10 2 -19 13 -21 25 l-3 22 -35 -21 c-19 -11 -34 -24 -34 -29 0 -14 -113 -119 -130 -120 -8 -1 -22 -1 -30 0 -9 1 -27 -13 -40 -31 -41 -56 -44 -59 -92 -109 -25 -27 -51 -49 -57 -49 -22 0 -23 30 -2 56 26 33 26 40 0 47 -21 6 -21 7 12 49 87 113 160 190 197 209 15 7 36 23 48 34 11 11 29 27 40 35 10 9 28 27 39 41 26 33 56 49 91 49 22 0 25 3 21 21 -9 32 20 69 53 69 15 0 30 -7 34 -15 3 -8 12 -12 21 -9 14 6 13 9 -5 21 -18 12 -19 17 -8 30 7 9 28 22 46 30 17 7 32 18 32 23 0 13 37 13 45 1z m-3900 -41 c-9 -15 -55 -12 -55 3 0 19 43 35 53 20 4 -7 5 -18 2 -23z m5593 -3 c53 -49 -2 -51 -76 -4 -10 7 -10 12 -1 23 14 17 45 10 77 -19z m-330 6 c2 -8 -5 -13 -17 -13 -21 0 -35 13 -24 24 10 10 36 3 41 -11z m-5343 -23 c10 -16 -11 -44 -49 -64 -41 -22 -51 -18 -42 19 4 16 13 25 27 25 11 0 22 7 25 15 7 17 30 20 39 5z m706 -5 c0 -5 -12 -11 -26 -13 -18 -2 -25 1 -25 13 0 12 7 15 25 13 14 -2 26 -7 26 -13z m4707 -2 c2 -8 -6 -13 -22 -13 -17 0 -26 5 -26 16 0 19 41 16 48 -3z m-4450 -9 c71 -6 82 -9 82 -26 0 -18 -7 -19 -136 -13 -75 3 -141 8 -146 11 -5 3 -1 15 9 26 15 16 26 19 63 14 25 -3 82 -9 128 -12z m4157 -13 c9 -15 -14 -24 -43 -16 -20 5 -23 8 -11 16 18 11 46 12 54 0z m449 -17 c10 -27 -3 -30 -26 -6 l-22 22 21 0 c11 0 24 -7 27 -16z m-216 -5 c38 -13 33 -29 -8 -29 -30 0 -45 13 -35 30 8 12 5 12 43 -1z m-4158 -13 c6 -8 28 -16 47 -18 20 -2 38 -9 41 -15 5 -18 -77 -17 -121 2 -20 8 -50 15 -66 15 -30 0 -46 11 -34 24 13 13 120 6 133 -8z m4271 -8 c20 -25 26 -68 8 -68 -27 0 -60 65 -42 83 10 10 13 9 34 -15z m-5981 -23 c0 -8 -7 -15 -15 -15 -8 0 -15 7 -15 15 0 8 7 15 15 15 8 0 15 -7 15 -15z m5788 4 c-2 -6 -8 -10 -13 -10 -5 0 -11 4 -13 10 -2 6 4 11 13 11 9 0 15 -5 13 -11z m316 -19 c30 0 36 -4 36 -21 0 -15 -4 -19 -16 -15 -9 3 -27 6 -40 6 -15 0 -24 6 -24 15 0 8 -7 15 -15 15 -16 0 -20 12 -8 24 4 4 13 0 19 -8 7 -10 26 -16 48 -16z m-4244 -16 c0 -2 -12 -4 -26 -4 -14 0 -23 4 -20 9 6 8 46 4 46 -5z m4424 -3 c10 -11 15 -25 10 -32 -5 -9 -10 -8 -18 3 -6 9 -20 17 -30 19 -11 2 -21 10 -24 17 -6 20 43 14 62 -7z m-6314 -10 c0 -11 -5 -23 -11 -26 -5 -4 -14 -17 -20 -28 -13 -32 -30 -56 -64 -91 -17 -17 -46 -52 -64 -78 -19 -27 -38 -48 -43 -48 -4 0 -8 -7 -8 -15 0 -8 -9 -15 -20 -15 -11 0 -20 5 -20 11 0 14 19 50 40 74 9 11 24 41 34 67 12 32 34 61 69 92 95 83 107 89 107 57z m3870 2 c0 -9 -8 -25 -17 -35 -13 -14 -14 -21 -5 -30 19 -19 14 -28 -13 -28 -31 0 -32 -13 -3 -32 20 -14 21 -18 10 -43 l-13 -29 -24 30 c-28 33 -31 70 -10 98 8 11 15 26 15 35 0 17 30 50 48 50 6 1 12 -7 12 -16z m2610 7 c0 -5 -4 -10 -10 -10 -5 0 -10 -5 -10 -11 0 -6 8 -9 18 -7 15 4 18 1 14 -17 -2 -13 1 -26 7 -29 24 -15 9 -27 -31 -24 -39 3 -43 5 -50 38 -6 29 -3 38 15 52 25 20 47 23 47 8z m-4515 -24 c11 -7 47 -16 80 -20 52 -7 122 -39 145 -67 3 -4 16 -10 30 -14 13 -4 30 -14 38 -21 7 -8 22 -14 33 -14 10 0 19 -4 19 -10 0 -5 8 -10 18 -10 11 0 27 -9 37 -20 10 -11 27 -20 37 -20 11 0 26 -7 34 -15 9 -8 23 -15 33 -15 10 0 23 -11 29 -25 10 -23 9 -25 -11 -25 -12 0 -40 11 -62 25 -22 13 -49 25 -60 25 -12 0 -25 4 -30 9 -17 17 -204 111 -220 111 -8 0 -15 4 -15 10 0 5 -12 13 -27 16 -15 4 -38 13 -52 20 -14 8 -30 14 -34 14 -15 0 -66 43 -61 52 7 11 16 10 39 -6z m-300 -13 c33 -3 69 -12 80 -19 11 -8 39 -14 62 -14 24 0 51 -4 61 -9 54 -29 104 -51 116 -51 14 0 50 -15 139 -61 32 -16 64 -29 71 -29 8 0 19 -7 26 -15 7 -8 21 -15 30 -15 10 0 20 -3 22 -7 2 -5 38 -25 80 -47 42 -21 79 -44 82 -52 3 -8 17 -14 31 -14 14 0 25 -4 25 -9 0 -5 12 -14 28 -20 15 -7 50 -25 79 -40 45 -25 68 -41 130 -91 6 -5 40 -29 74 -52 35 -24 78 -59 96 -78 114 -125 133 -147 133 -161 0 -9 7 -22 15 -29 8 -7 12 -16 9 -21 -6 -10 -8 -9 -174 153 -62 59 -117 108 -122 108 -5 0 -33 20 -61 45 -29 25 -56 45 -60 45 -5 0 -26 14 -47 30 -21 17 -43 30 -49 30 -6 0 -11 4 -11 10 0 5 -11 12 -25 16 -14 3 -25 9 -25 13 0 4 -19 15 -42 25 -71 30 -133 61 -138 68 -3 3 -19 10 -35 14 -17 3 -37 12 -45 19 -8 7 -46 26 -85 44 -38 18 -82 39 -97 47 -14 8 -33 14 -42 14 -9 0 -16 4 -16 10 0 5 -12 12 -27 16 -16 3 -37 10 -48 15 -44 19 -112 41 -142 46 -18 3 -38 11 -44 19 -8 10 -36 14 -98 14 -99 0 -134 16 -78 36 17 6 39 9 47 7 8 -3 42 -7 75 -10z m5325 -80 c0 -7 -5 -13 -11 -13 -14 0 -49 43 -42 52 6 11 52 -24 53 -39z m-3340 27 c0 -5 -5 -10 -12 -10 -7 0 3 -15 21 -34 27 -28 32 -40 27 -61 -4 -15 -17 -30 -31 -35 -14 -5 -25 -16 -25 -24 0 -8 -4 -18 -10 -21 -13 -8 -50 12 -50 27 0 6 -7 19 -16 29 -22 24 -11 53 17 44 18 -6 20 -4 15 13 -5 13 2 30 20 51 26 31 44 40 44 21z m3394 -121 c-7 -13 -24 -1 -24 17 0 8 -4 14 -10 14 -5 0 -10 8 -10 18 0 13 6 11 25 -12 13 -16 22 -33 19 -37z m-3268 -8 c-8 -9 -18 -28 -21 -44 -8 -29 -38 -52 -55 -42 -6 4 -4 15 5 28 8 12 15 27 15 35 0 7 10 26 22 43 21 28 24 29 35 13 10 -14 10 -21 -1 -33z m2916 -31 c25 -6 37 -44 16 -52 -7 -3 -28 1 -45 9 -28 11 -33 18 -33 46 0 43 11 54 26 25 7 -13 23 -25 36 -28z m-4756 15 c16 -8 37 -15 47 -15 9 0 17 -4 17 -10 0 -5 12 -12 28 -15 32 -7 151 -65 170 -82 7 -7 19 -13 26 -13 8 0 19 -7 26 -15 7 -8 21 -15 32 -15 10 0 21 -7 24 -15 4 -8 15 -15 25 -15 10 0 19 -7 19 -15 0 -8 -9 -15 -19 -15 -10 0 -21 7 -25 15 -3 8 -16 15 -29 15 -14 0 -30 7 -37 15 -7 8 -19 15 -26 15 -8 0 -22 4 -32 9 -50 27 -104 51 -113 51 -6 0 -17 7 -25 15 -9 8 -24 15 -33 15 -10 0 -24 7 -31 15 -7 8 -23 15 -35 15 -13 0 -25 7 -29 15 -3 8 -15 15 -26 15 -11 0 -20 7 -20 15 0 19 30 19 66 0z m5172 -37 c-2 -13 -7 -23 -13 -23 -5 0 -11 10 -13 23 -2 15 2 22 13 22 11 0 15 -7 13 -22z m-2918 -22 c0 -8 -5 -18 -11 -21 -6 -4 -8 -13 -5 -21 6 -15 -78 -104 -99 -104 -7 0 -26 -13 -41 -28 -16 -16 -37 -32 -48 -36 -31 -11 -11 45 26 74 49 38 128 123 128 137 0 7 11 13 25 13 15 0 25 -6 25 -14z m70 -3 c0 -20 -28 -53 -47 -53 -18 0 -16 26 5 49 21 24 42 26 42 4z m-1562 -60 c15 -10 35 -26 44 -35 19 -19 25 -68 8 -68 -16 0 -121 105 -113 113 11 12 32 8 61 -10z m450 0 c15 -10 46 -36 70 -58 24 -21 64 -54 89 -72 61 -43 83 -68 83 -92 0 -12 9 -26 20 -33 11 -7 20 -23 20 -35 0 -12 5 -25 10 -28 15 -9 2 -25 -19 -25 -17 0 -45 28 -135 135 -22 26 -75 83 -118 127 -43 44 -78 84 -78 89 0 15 29 10 58 -8z m3737 -58 c18 -35 18 -38 2 -50 -9 -7 -17 -20 -17 -29 0 -21 -9 -20 -39 3 -24 18 -24 20 -8 45 9 14 17 34 17 44 0 20 9 34 19 28 3 -3 15 -21 26 -41z m85 -25 c40 -75 50 -103 41 -117 -6 -11 -10 -12 -15 -4 -12 18 -36 13 -36 -8 0 -11 7 -26 15 -35 8 -8 15 -23 15 -33 0 -10 6 -27 14 -38 7 -11 16 -41 19 -67 6 -43 5 -48 -13 -48 -14 0 -20 7 -20 24 0 13 -7 29 -15 36 -8 7 -15 24 -15 37 0 14 -6 37 -13 51 -8 15 -21 42 -30 60 -19 38 -22 72 -7 72 6 0 13 -7 16 -15 7 -17 34 -21 34 -4 0 6 -5 20 -12 32 -20 35 -36 86 -30 92 13 13 34 -2 52 -35z m-4101 -58 c17 -22 46 -50 66 -63 35 -24 44 -42 25 -54 -14 -8 -39 7 -85 54 -22 22 -45 40 -50 41 -14 0 -37 39 -30 50 13 21 45 8 74 -28z m983 -91 c-20 -36 -51 -56 -64 -43 -6 6 3 23 27 46 41 41 62 40 37 -3z m3198 -29 c0 -10 6 -27 14 -38 21 -29 25 -109 6 -109 -10 0 -16 12 -18 37 -2 20 -10 42 -18 48 -14 12 -20 71 -8 83 10 10 24 -2 24 -21z m-4331 -51 c22 -21 41 -42 41 -47 0 -4 10 -18 22 -31 16 -18 19 -26 10 -35 -9 -9 -18 -5 -37 16 -14 15 -25 31 -25 36 0 5 -20 21 -45 37 -46 29 -60 63 -26 63 10 0 37 -17 60 -39z m348 -19 c58 -58 113 -126 113 -140 0 -6 16 -29 35 -52 19 -23 32 -46 29 -51 -9 -15 -31 -10 -38 9 -8 26 -26 49 -80 105 -27 29 -60 70 -73 92 -14 22 -32 45 -40 52 -13 10 -11 33 2 33 2 0 26 -22 52 -48z m271 -69 c23 -31 42 -64 42 -74 0 -27 -37 -24 -51 4 -7 12 -15 24 -19 27 -17 12 -60 84 -60 101 0 31 40 5 88 -58z m3352 -113 c0 -30 5 -40 20 -45 22 -7 25 -21 10 -60 -12 -30 -30 -25 -30 9 0 13 -7 29 -15 36 -15 12 -21 90 -9 103 14 13 24 -6 24 -43z m-7050 -9 c0 -10 -7 -24 -15 -31 -8 -7 -15 -25 -15 -40 0 -15 -7 -41 -16 -58 -15 -31 -12 -72 6 -72 5 0 13 12 18 28 l10 27 1 -27 c1 -16 -3 -28 -9 -28 -5 0 -10 -20 -10 -44 0 -24 -7 -57 -15 -72 -8 -16 -15 -45 -15 -65 0 -19 -5 -40 -12 -47 -7 -7 -13 -39 -13 -71 0 -33 -7 -66 -14 -75 -7 -8 -14 -33 -16 -53 -1 -21 -9 -51 -18 -68 -17 -30 -23 -137 -11 -169 11 -29 24 -5 24 44 0 26 3 55 6 64 13 33 24 2 24 -63 0 -38 7 -84 15 -104 19 -45 20 -146 1 -172 -25 -38 -28 -106 -6 -150 11 -21 20 -53 20 -70 0 -17 7 -40 15 -51 8 -10 15 -31 15 -45 0 -14 7 -34 15 -45 8 -10 15 -31 15 -45 0 -14 7 -34 15 -45 8 -10 15 -29 15 -40 0 -12 7 -27 15 -34 8 -7 15 -21 15 -32 0 -12 9 -22 21 -25 16 -4 19 -11 15 -29 -8 -29 13 -43 30 -20 8 12 14 14 19 6 4 -7 2 -17 -4 -23 -13 -13 -15 -47 -2 -47 5 0 12 8 15 17 5 12 9 14 18 5 9 -9 9 -16 -3 -27 -29 -29 -11 -78 59 -165 37 -46 78 -98 92 -116 14 -19 31 -34 38 -34 6 0 12 -9 12 -21 0 -16 4 -19 21 -14 18 6 20 4 14 -14 -7 -23 4 -28 24 -8 11 10 12 6 7 -19 -6 -26 -2 -37 24 -64 16 -17 30 -36 30 -40 0 -5 3 -10 8 -12 4 -1 22 -23 41 -46 27 -35 31 -46 20 -52 -7 -5 -10 -12 -6 -17 5 -4 12 -1 16 6 5 7 14 10 20 6 9 -5 7 -11 -6 -20 -16 -12 -13 -17 33 -58 27 -25 75 -65 105 -88 60 -48 63 -51 98 -79 13 -11 27 -20 30 -20 3 0 17 -10 31 -23 14 -12 43 -34 65 -47 22 -13 45 -29 51 -35 6 -5 22 -17 34 -25 12 -8 33 -23 45 -32 13 -10 28 -18 34 -18 6 0 11 -4 11 -8 0 -5 24 -21 53 -36 28 -15 68 -37 87 -48 64 -38 105 -58 115 -58 14 0 129 -60 192 -100 52 -32 60 -50 23 -50 -37 0 -28 -16 23 -40 29 -14 79 -43 112 -65 33 -22 76 -49 95 -59 19 -11 41 -25 48 -30 7 -6 18 -15 25 -21 87 -72 191 -145 206 -145 5 0 14 -7 21 -15 15 -18 97 -75 108 -75 4 0 30 -21 57 -45 28 -25 77 -67 110 -92 71 -56 165 -148 165 -162 0 -6 12 -17 28 -25 15 -8 39 -25 55 -38 15 -13 53 -43 84 -68 77 -61 123 -109 123 -130 0 -15 -36 -12 -50 5 -7 8 -19 15 -26 15 -8 0 -14 10 -14 23 0 20 -52 67 -73 67 -4 0 -27 20 -50 45 -40 41 -77 59 -77 36 0 -5 28 -36 62 -68 115 -107 401 -407 407 -426 2 -7 19 -31 37 -54 68 -83 29 -102 -44 -21 -49 55 -165 175 -210 218 -15 14 -38 38 -52 54 -79 89 -143 150 -147 139 -7 -19 -35 -15 -64 10 -34 29 -43 54 -22 65 12 8 4 20 -46 71 -34 33 -67 61 -72 61 -6 0 -13 -9 -16 -20 -3 -11 -9 -17 -15 -14 -5 3 -6 14 -3 24 7 22 -44 52 -67 39 -19 -11 -100 69 -128 127 -14 28 -30 46 -45 50 -17 4 -21 11 -17 26 4 17 1 19 -17 13 -17 -5 -21 -2 -21 14 0 16 -9 21 -47 27 -49 7 -120 49 -162 97 -14 15 -29 27 -34 27 -9 0 -84 55 -102 76 -5 6 -43 39 -83 72 -57 49 -80 62 -106 62 -23 0 -41 9 -62 30 -16 16 -32 30 -36 30 -8 0 -127 78 -163 105 -10 8 -23 15 -28 15 -5 0 -26 12 -46 28 -48 36 -72 51 -93 58 -10 4 -18 10 -18 14 0 5 -9 12 -20 15 -32 10 -25 35 10 35 28 0 143 -62 216 -117 17 -13 35 -23 40 -23 6 0 30 -18 54 -41 62 -58 86 -72 110 -64 30 10 25 21 -22 45 -23 12 -59 41 -80 65 -21 23 -57 52 -80 64 -91 46 -200 117 -219 144 -7 9 -83 53 -121 70 -16 6 -28 15 -28 18 0 4 -22 21 -48 37 -26 16 -54 36 -62 44 -8 8 -40 32 -70 53 -30 21 -59 42 -65 47 -49 41 -59 48 -67 48 -13 0 -388 378 -388 391 0 9 -8 21 -37 54 -7 7 -13 18 -13 23 0 5 -7 15 -15 22 -8 7 -15 19 -15 28 0 8 -8 20 -17 27 -15 11 -15 17 -5 40 11 24 9 31 -20 73 -18 26 -43 58 -55 72 -13 13 -23 34 -23 45 0 11 -11 31 -25 43 -14 13 -29 42 -35 63 -6 22 -15 37 -20 34 -16 -10 -11 -57 7 -77 12 -13 13 -22 6 -29 -27 -27 -57 6 -98 106 -9 22 -23 53 -31 68 -8 16 -14 35 -14 44 0 8 -6 29 -14 46 -8 18 -17 56 -20 86 -3 29 -9 58 -14 65 -22 29 -41 110 -45 201 -3 55 -11 115 -18 134 -9 26 -9 48 1 105 7 39 16 123 21 186 9 131 25 230 45 277 8 17 14 37 14 45 0 8 3 18 7 22 4 4 13 26 19 49 16 56 34 106 50 139 8 14 14 39 14 56 0 16 7 35 15 42 8 7 15 23 15 37 0 13 7 26 15 29 8 4 15 16 15 28 0 13 3 26 6 29 11 10 24 -3 24 -22z m7312 -113 c-13 -13 -24 5 -16 27 7 16 8 16 17 0 6 -11 6 -20 -1 -27z m-5742 -17 c0 -14 -18 -23 -30 -16 -6 4 -8 11 -5 16 8 12 35 12 35 0z m-370 -33 c-1 -19 -49 -51 -67 -44 -14 6 -13 10 7 31 25 26 60 34 60 13z m300 -3 c0 -9 -9 -15 -25 -15 -16 0 -25 6 -25 15 0 9 9 15 25 15 16 0 25 -6 25 -15z m329 -32 c62 -36 19 -59 -51 -29 -18 8 -41 17 -51 20 -10 3 -15 10 -12 16 10 16 81 12 114 -7z m5519 0 c-4 -22 -22 -20 -26 1 -2 10 3 16 13 16 10 0 15 -7 13 -17z m-203 -173 c-1 -97 -3 -112 -22 -132 -12 -13 -23 -32 -25 -43 -10 -48 -19 87 -9 140 6 32 11 71 11 86 0 15 5 40 10 55 9 21 13 25 23 15 8 -8 12 -49 12 -121z m-5130 100 c10 0 37 -13 62 -30 24 -16 53 -30 63 -30 11 0 42 -13 68 -30 27 -16 54 -30 61 -30 6 0 11 -5 11 -10 0 -6 10 -15 23 -20 56 -25 102 -64 92 -81 -6 -9 -11 -9 -19 2 -6 8 -59 38 -119 68 -59 30 -110 58 -113 62 -3 5 -13 9 -23 9 -10 0 -24 7 -31 15 -7 8 -20 15 -30 15 -10 0 -23 7 -30 15 -7 8 -25 15 -41 15 -31 0 -44 13 -35 36 4 11 10 12 25 4 11 -5 27 -10 36 -10z m5995 -43 c0 -48 -5 -58 -26 -50 -21 8 -6 93 17 93 5 0 9 -19 9 -43z m-632 -19 c-2 -18 -7 -33 -13 -33 -5 0 -11 15 -13 33 -3 24 1 32 13 32 12 0 16 -8 13 -32z m-1886 -83 c1 -65 -25 -139 -61 -173 -16 -15 -31 -36 -33 -47 -2 -12 -13 -21 -26 -23 -13 -2 -26 -10 -29 -18 -3 -8 -11 -14 -19 -14 -19 0 -18 69 1 94 8 11 15 34 15 52 0 26 5 33 25 38 30 8 31 15 5 66 -25 49 -25 50 5 50 14 0 25 -4 25 -10 0 -28 28 -4 49 43 l24 52 9 -30 c4 -16 9 -52 10 -80z m206 47 c3 -20 0 -23 -20 -20 -15 2 -24 11 -26 26 -3 20 0 23 20 20 15 -2 24 -11 26 -26z m68 -64 c-7 -70 -11 -78 -37 -78 -17 0 -20 5 -15 28 2 15 8 45 11 67 9 50 12 56 32 48 13 -5 14 -17 9 -65z m-576 32 c0 -5 7 -10 15 -10 8 0 15 5 15 10 0 6 11 10 25 10 35 0 49 -34 38 -90 -10 -53 -34 -71 -61 -47 -10 9 -32 17 -49 17 -43 0 -46 9 -18 46 15 19 21 35 15 39 -15 10 -12 35 5 35 8 0 15 -4 15 -10z m2186 -25 c9 -36 -2 -55 -31 -55 -22 0 -25 4 -25 33 0 38 6 47 31 47 11 0 21 -10 25 -25z m-2243 -2 c11 -18 -12 -46 -47 -58 -31 -11 -38 -11 -43 0 -7 20 5 35 28 35 11 0 22 7 25 15 6 16 30 20 37 8z m3177 -23 c0 -25 -18 -36 -26 -16 -8 21 3 49 16 41 5 -3 10 -15 10 -25z m-8670 -54 c0 -13 -7 -37 -15 -52 -8 -17 -15 -56 -15 -91 0 -34 -7 -88 -15 -120 -21 -80 -21 -420 0 -489 8 -27 15 -84 15 -126 0 -42 5 -80 10 -83 6 -3 10 -18 10 -32 0 -25 -1 -24 -25 11 -17 25 -25 50 -25 80 0 24 -7 60 -15 79 -21 52 -22 583 0 642 8 22 14 66 15 98 0 39 6 66 18 82 22 31 42 32 42 1z m7708 -80 c3 -63 2 -68 -28 -92 -26 -22 -30 -32 -30 -75 0 -35 4 -51 15 -55 22 -9 18 -34 -4 -34 -11 0 -23 -4 -26 -10 -3 -5 -19 -10 -36 -10 -16 0 -29 5 -29 10 0 6 10 10 23 10 22 0 23 3 22 73 0 67 2 76 33 114 27 34 32 49 32 93 0 37 4 50 13 48 7 -3 13 -29 15 -72z m-2285 28 c8 -8 -3 -34 -14 -34 -5 0 -9 9 -9 20 0 19 11 26 23 14z m185 -45 c-1 -13 -7 -23 -13 -22 -13 3 -18 30 -11 50 10 24 29 1 24 -28z m-274 23 c6 -11 -26 -50 -44 -52 -46 -6 -53 11 -17 41 23 19 52 25 61 11z m547 -4 c-1 -5 -1 -17 -1 -28 0 -11 -7 -20 -15 -20 -10 0 -15 10 -15 31 0 22 4 30 16 27 8 -2 15 -6 15 -10z m-4621 -47 c0 -10 -11 -26 -25 -35 -29 -19 -32 -8 -10 35 17 31 35 31 35 0z m-542 -78 c-4 -94 -22 -104 -26 -14 -3 69 1 91 18 91 7 0 10 -27 8 -77z m1436 56 c20 -12 36 -25 36 -30 0 -16 -106 -11 -120 6 -7 8 -23 15 -36 15 -15 0 -24 6 -24 15 0 24 100 20 144 -6z m-2074 2 c0 -6 -4 -12 -9 -15 -4 -3 -11 -19 -14 -36 -4 -16 -11 -30 -17 -30 -16 0 -12 39 8 65 18 25 32 32 32 16z m7180 -58 c0 -23 -5 -33 -15 -33 -16 0 -21 43 -9 75 10 24 24 -1 24 -42z m210 -7 c0 -36 -5 -58 -16 -66 -16 -14 -16 -65 1 -65 5 0 12 14 15 30 7 39 24 39 28 -1 2 -19 -3 -36 -12 -44 -9 -7 -16 -25 -16 -41 0 -40 -13 -43 -38 -9 -27 35 -30 133 -7 164 8 11 15 35 15 53 0 23 5 33 15 33 11 0 15 -13 15 -54z m-2200 -16 c0 -6 -18 -38 -40 -71 -22 -33 -40 -62 -40 -65 0 -2 -8 -13 -17 -24 -22 -26 -43 -26 -43 0 0 11 4 20 9 20 9 0 24 57 25 93 1 10 12 27 26 37 27 21 80 27 80 10z m-5239 -177 c0 -87 5 -180 10 -208 6 -27 14 -89 18 -137 5 -48 13 -93 18 -100 6 -7 13 -43 16 -81 2 -37 9 -73 15 -80 5 -6 13 -33 16 -59 4 -26 11 -50 17 -53 5 -4 9 -21 9 -39 0 -18 7 -41 15 -52 8 -10 15 -31 15 -45 0 -15 7 -32 15 -39 8 -7 15 -21 15 -30 0 -10 8 -31 17 -48 10 -18 14 -35 9 -48 -8 -18 -9 -17 -20 7 -6 14 -16 32 -22 40 -6 8 -14 26 -18 42 -3 15 -11 27 -16 27 -6 0 -10 7 -10 16 0 9 -6 28 -13 42 -26 51 -46 97 -52 122 -3 14 -10 34 -15 45 -16 37 -32 110 -41 185 -5 41 -14 91 -19 110 -11 38 -14 498 -4 524 17 44 24 2 25 -141z m2036 127 c-6 -29 -5 -30 28 -30 19 0 35 -4 35 -9 0 -5 14 -13 32 -16 37 -9 117 -64 118 -82 0 -18 -45 -16 -60 2 -7 8 -19 15 -26 15 -8 0 -14 4 -14 9 0 5 -15 12 -34 15 -19 4 -39 13 -46 21 -7 8 -18 15 -25 15 -15 0 -57 75 -48 84 4 3 15 6 26 6 16 0 19 -5 14 -30z m346 -13 c13 -17 17 -31 11 -36 -12 -13 -50 17 -59 47 -10 33 21 26 48 -11z m4817 -51 c0 -44 -5 -67 -15 -76 -10 -9 -15 -31 -15 -74 0 -37 -6 -70 -14 -82 -8 -11 -16 -36 -18 -55 -2 -19 -7 -34 -13 -34 -17 0 -18 75 -1 100 9 14 16 46 16 73 0 27 6 57 15 68 9 12 14 42 15 82 0 48 3 62 15 62 12 0 15 -14 15 -64z m-6302 -77 c-2 -19 -7 -33 -13 -32 -12 3 -19 49 -10 71 10 26 27 -2 23 -39z m1185 -4 c38 -19 74 -35 81 -35 8 0 19 -7 26 -15 7 -8 19 -15 28 -15 23 0 117 -80 144 -122 17 -28 28 -36 42 -32 13 4 17 2 12 -7 -3 -8 -9 -22 -12 -31 -8 -23 -25 -23 -57 2 -32 26 -37 25 -37 -3 0 -28 -17 -47 -42 -47 -11 0 -18 7 -18 19 0 11 -15 28 -34 41 -28 17 -92 86 -224 242 -15 18 -9 38 11 38 7 0 43 -16 80 -35z m-943 -4 c0 -16 7 -34 15 -41 17 -14 21 -75 5 -85 -14 -9 -40 50 -47 106 -5 41 -3 49 11 49 11 0 16 -9 16 -29z m6247 -50 c6 -42 23 -58 23 -21 0 24 18 27 27 4 4 -10 -1 -22 -10 -29 -11 -8 -17 -27 -17 -55 0 -39 -2 -42 -24 -36 -26 6 -36 -12 -36 -65 0 -15 -7 -32 -15 -39 -8 -7 -15 -26 -15 -42 0 -16 6 -31 15 -34 10 -4 15 -20 15 -45 0 -28 -4 -39 -15 -39 -10 0 -15 10 -15 30 0 18 -6 33 -15 36 -20 8 -20 92 0 118 9 12 15 42 15 77 0 38 5 61 15 69 10 8 15 30 15 65 0 81 26 86 37 6z m-6667 1 c0 -45 -14 -72 -24 -47 -8 22 -8 80 0 88 13 13 24 -5 24 -41z m1610 33 c7 -8 19 -15 26 -15 8 0 14 -5 14 -11 0 -7 8 -18 18 -25 16 -13 16 -13 0 -14 -10 0 -18 5 -18 10 0 6 -10 10 -22 10 -21 0 -68 38 -68 54 0 12 38 6 50 -9z m5187 -80 c-4 -8 -14 -15 -23 -15 -16 0 -16 2 1 20 20 22 31 20 22 -5z m-6493 -31 c9 -3 16 -16 16 -29 0 -12 9 -34 21 -49 11 -14 17 -31 14 -37 -11 -16 -55 30 -55 57 0 13 -4 26 -10 29 -10 6 -14 35 -6 35 2 0 11 -3 20 -6z m4196 -24 c0 -18 -6 -33 -15 -36 -8 -4 -15 -14 -15 -23 0 -9 -13 -32 -30 -51 -16 -19 -29 -39 -30 -43 0 -4 -23 -38 -51 -75 -50 -66 -78 -88 -90 -70 -12 18 75 159 138 223 21 23 45 55 52 73 17 41 41 42 41 2z m-4069 -52 c19 -24 25 -63 11 -72 -20 -12 -52 25 -52 60 0 39 14 43 41 12z m3769 8 c0 -8 -5 -18 -11 -21 -5 -4 -14 -18 -20 -32 -5 -13 -13 -21 -19 -18 -11 7 -14 68 -3 78 12 13 53 7 53 -7z m-2962 -46 c7 0 16 -8 19 -17 4 -10 27 -39 52 -64 78 -79 102 -110 99 -127 -7 -32 -43 -11 -123 72 -87 91 -122 145 -111 173 7 16 10 15 30 -9 12 -16 27 -28 34 -28z m3072 -37 c-13 -58 -32 -89 -48 -79 -19 11 -14 42 14 97 33 61 49 53 34 -18z m2078 -40 c-3 -42 -21 -51 -26 -15 -4 29 4 52 18 52 7 0 10 -15 8 -37z m-5927 -5 c20 -25 26 -68 8 -68 -17 0 -48 43 -49 68 0 12 5 22 11 22 6 0 19 -10 30 -22z m4849 -45 c0 -10 -4 -25 -10 -33 -8 -12 -10 -12 -16 3 -7 20 1 47 16 47 5 0 10 -8 10 -17z m-3630 -15 c30 -22 31 -38 2 -38 -20 1 -62 34 -62 49 0 18 29 13 60 -11z m4888 -19 c-2 -6 -8 -10 -13 -10 -5 0 -11 4 -13 10 -2 6 4 11 13 11 9 0 15 -5 13 -11z m-2918 -61 c0 -5 -8 -20 -17 -34 -13 -20 -14 -30 -6 -43 14 -22 4 -111 -14 -129 -7 -7 -13 -19 -13 -26 0 -8 -7 -19 -15 -26 -8 -7 -15 -22 -15 -33 0 -12 -12 -31 -27 -43 -27 -21 -27 -23 -10 -42 27 -30 14 -101 -24 -139 -16 -15 -29 -38 -29 -50 0 -12 -5 -23 -11 -25 -6 -2 -12 -18 -13 -36 -1 -18 -7 -37 -13 -43 -14 -14 -53 -2 -53 16 0 7 -7 21 -16 29 -21 22 -15 137 9 164 9 10 17 31 17 45 0 27 22 38 35 17 3 -5 13 -10 21 -10 8 0 14 5 14 10 0 6 -9 10 -19 10 -28 0 -34 14 -32 82 1 43 7 67 22 88 27 36 53 30 44 -11 -8 -36 9 -38 47 -5 32 29 54 70 63 119 8 39 -10 54 -22 20 -9 -26 -34 -53 -50 -53 -19 0 -17 59 4 82 9 10 27 18 40 18 14 0 23 6 23 16 0 30 19 52 40 47 11 -3 20 -9 20 -15z m70 -17 c0 -30 -41 -87 -53 -74 -12 11 -8 43 8 73 20 39 45 39 45 1z m1508 -3 c-7 -12 -19 -27 -25 -31 -7 -4 -13 -12 -13 -18 0 -20 -44 -69 -62 -69 -10 0 -18 2 -18 5 0 8 92 119 109 132 22 16 25 9 9 -19z m-1058 -130 c0 -16 -31 -48 -47 -48 -18 0 -16 16 5 39 19 22 42 27 42 9z m-2153 -91 c4 -8 16 -16 26 -20 31 -11 18 -27 -23 -27 -22 0 -40 5 -40 10 0 6 -6 10 -14 10 -17 0 -38 24 -29 33 12 12 72 7 80 -6z m181 -65 c20 -13 32 -62 15 -62 -18 -1 -113 55 -113 66 0 27 55 24 98 -4z m455 -27 c9 -19 12 -35 7 -35 -17 0 -50 34 -50 52 0 30 25 20 43 -17z m735 8 c5 -16 -22 -27 -44 -19 -13 5 -14 9 -4 22 15 17 41 15 48 -3z m-1579 -35 c52 -25 84 -55 75 -69 -3 -6 -11 -3 -18 7 -14 19 -36 11 -36 -12 0 -23 -14 -16 -59 31 -61 64 -44 83 38 43z m3471 -2 c0 -16 -18 -31 -27 -22 -8 8 5 36 17 36 5 0 10 -6 10 -14z m-3202 -30 c2 -10 -2 -22 -8 -26 -8 -5 -2 -10 17 -14 18 -4 47 -28 78 -63 28 -31 59 -67 70 -79 11 -12 27 -32 35 -43 19 -28 38 -26 46 4 7 29 -10 55 -36 55 -11 0 -21 14 -30 40 -9 28 -19 40 -32 40 -11 0 -23 12 -30 28 -7 15 -18 35 -26 45 -14 15 -13 17 6 17 12 0 22 -4 22 -10 0 -5 11 -10 24 -10 29 0 126 -49 133 -67 3 -7 11 -13 18 -13 7 0 30 -16 51 -35 23 -20 50 -35 65 -35 14 0 30 -5 37 -12 9 -9 16 -7 32 7 18 17 20 17 26 0 4 -10 1 -20 -6 -25 -9 -6 -7 -13 9 -29 11 -11 26 -21 31 -21 6 0 10 -4 10 -9 0 -5 20 -6 44 -4 42 5 44 4 75 -38 17 -25 42 -53 56 -63 22 -16 25 -27 25 -75 0 -32 6 -63 13 -70 10 -11 10 -14 0 -18 -7 -3 -13 -11 -13 -19 0 -8 -10 -14 -25 -14 -27 0 -34 -14 -11 -23 8 -3 16 -18 18 -34 2 -24 8 -28 36 -31 18 -2 36 -10 39 -18 3 -8 12 -14 20 -14 10 0 13 5 8 18 -13 31 -10 46 9 50 36 7 44 -51 10 -71 -8 -4 -14 -19 -14 -32 0 -16 -6 -25 -15 -25 -9 0 -15 -9 -15 -25 0 -14 7 -28 15 -31 8 -4 15 -12 15 -19 0 -7 -7 -15 -15 -19 -20 -7 -19 -35 0 -43 15 -5 51 -63 40 -63 -26 0 -115 83 -115 107 0 11 7 13 30 8 23 -5 30 -3 30 9 0 9 -7 16 -15 16 -10 0 -15 10 -15 30 0 33 -14 39 -29 13 -8 -15 -13 -16 -29 -6 -14 8 -22 9 -30 1 -14 -14 -67 35 -57 51 7 13 -12 51 -25 51 -6 0 -10 -7 -10 -15 0 -8 -5 -15 -11 -15 -14 0 -229 213 -229 226 0 5 -19 28 -43 51 -43 42 -86 130 -49 101 9 -7 21 -19 25 -25 9 -15 37 -17 37 -4 0 5 -16 19 -35 31 -19 12 -35 27 -36 33 0 8 -2 8 -6 0 -9 -24 -48 -13 -73 19 -54 69 -150 159 -185 173 -44 19 -51 35 -33 75 14 33 40 37 46 6z m369 -16 c9 -16 23 -30 30 -30 7 0 13 -7 13 -15 0 -8 5 -15 10 -15 6 0 10 -4 10 -9 0 -5 -11 -4 -25 2 -14 7 -25 16 -25 20 0 12 -42 46 -57 47 -7 0 -13 7 -13 15 0 26 38 16 57 -15z m908 -1 c6 -6 5 -17 -4 -31 -8 -12 -16 -44 -20 -72 -3 -27 -12 -51 -18 -54 -7 -2 -13 2 -13 10 0 8 -10 26 -21 40 -23 29 -33 95 -16 116 11 13 74 7 92 -9z m1904 7 c10 -11 10 -20 0 -37 -17 -32 -81 -89 -101 -89 -24 0 -30 15 -13 30 8 7 15 19 15 27 0 8 13 22 29 31 17 9 32 25 35 34 5 22 19 23 35 4z m-5447 -48 c-15 -15 -26 -4 -18 18 5 13 9 15 18 6 9 -9 9 -15 0 -24z m-174 -26 c4 -38 -22 -46 -32 -9 -10 37 -7 49 12 45 11 -2 18 -14 20 -36z m1977 -27 c31 -27 84 -76 118 -107 34 -31 80 -70 103 -86 46 -34 114 -110 114 -128 0 -7 6 -15 13 -17 6 -3 3 -6 -8 -6 -11 -1 -28 8 -38 19 -9 11 -24 20 -32 20 -8 0 -50 36 -93 79 -42 44 -83 85 -91 93 -8 7 -35 34 -61 61 -27 26 -51 47 -56 47 -15 0 -54 43 -54 60 0 21 11 33 22 23 4 -5 32 -30 63 -58z m1028 28 c15 -13 21 -15 24 -5 8 21 19 14 85 -51 86 -85 97 -107 74 -153 l-17 -36 -104 108 c-96 99 -117 129 -98 147 10 10 14 9 36 -10z m-703 -20 c37 -9 80 -44 80 -66 0 -14 5 -18 20 -14 12 3 20 0 20 -7 0 -7 11 -22 25 -34 14 -12 25 -29 25 -37 0 -8 8 -15 18 -15 18 0 100 -85 181 -187 23 -29 48 -53 56 -53 8 0 15 -9 15 -19 0 -21 57 -81 76 -81 5 0 20 -13 32 -30 13 -16 29 -30 37 -30 17 0 55 -35 55 -50 0 -5 -4 -10 -10 -10 -5 0 -10 -7 -10 -15 0 -8 14 -17 34 -21 25 -4 42 -17 61 -43 14 -21 37 -44 50 -51 14 -7 25 -16 25 -20 0 -15 107 -120 123 -120 27 0 66 -49 79 -98 6 -24 17 -46 24 -49 15 -5 20 -33 6 -33 -4 0 -101 95 -215 210 -114 116 -209 210 -212 210 -8 0 -130 126 -170 176 -49 60 -82 99 -115 134 -14 14 -45 49 -69 76 -25 27 -54 54 -66 59 -39 18 -163 130 -169 152 -3 12 -16 25 -28 29 -23 7 -47 31 -48 48 0 4 10 5 23 1 12 -3 33 -9 47 -12z m5290 -33 c0 -23 -4 -30 -20 -30 -22 0 -23 3 -14 38 9 33 34 28 34 -8z m-3990 -29 c0 -43 -10 -61 -31 -61 -30 0 -33 26 -9 60 27 38 40 38 40 1z m-3540 5 c0 -2 3 -11 6 -20 5 -12 0 -16 -19 -16 -30 0 -45 18 -26 31 15 9 39 12 39 5z m5422 -21 c0 -5 -5 -11 -11 -13 -6 -2 -11 4 -11 13 0 9 5 15 11 13 6 -2 11 -8 11 -13z m-1818 -38 c0 -9 -2 -34 -3 -54 -1 -23 -11 -50 -26 -68 -22 -27 -25 -28 -30 -10 -4 11 -13 34 -22 52 -17 36 -12 53 16 46 14 -3 21 3 30 27 11 33 37 37 35 7z m3866 -2 c0 -20 -5 -25 -24 -25 -22 0 -23 2 -13 25 15 32 37 32 37 0z m-2100 -12 c-1 -21 -33 -63 -49 -63 -18 0 -12 35 9 58 25 27 40 28 40 5z m-5317 -53 c3 -11 1 -20 -4 -20 -5 0 -9 2 -9 4 0 2 -3 11 -6 20 -3 9 -2 16 4 16 5 0 12 -9 15 -20z m1944 -70 c10 -11 20 -20 24 -20 10 0 109 -100 109 -111 0 -5 -10 -9 -22 -9 -27 0 -158 121 -158 145 0 21 27 19 47 -5z m-287 -5 c0 -9 9 -15 23 -15 29 -1 100 -67 93 -87 -4 -10 -13 -12 -28 -7 -25 8 -129 110 -120 118 11 12 32 6 32 -9z m1978 -49 c2 -60 -6 -69 -31 -33 l-16 22 -7 -22 c-10 -37 -36 -29 -32 10 2 25 8 33 26 35 14 2 27 14 33 28 14 38 24 22 27 -40z m62 20 c0 -8 -4 -17 -9 -21 -12 -7 -24 12 -16 25 9 15 25 12 25 -4z m-280 -46 c4 0 10 -17 13 -37 4 -23 16 -45 33 -58 34 -27 28 -62 -9 -50 -12 4 -38 10 -57 13 -34 7 -35 8 -38 60 -3 57 11 87 35 77 8 -3 18 -5 23 -5z m-3338 -51 c50 -54 57 -69 35 -69 -14 0 -77 66 -77 80 0 4 -7 10 -15 14 -8 3 -15 10 -15 16 0 23 27 7 72 -41z m394 -96 c-5 -5 -92 61 -113 87 -7 8 -12 24 -12 35 -1 15 16 3 65 -48 36 -38 63 -71 60 -74z m2654 33 c0 -23 -22 -41 -34 -29 -3 4 -6 17 -6 30 0 16 6 23 20 23 14 0 20 -7 20 -24z m-1290 -58 c36 -26 41 -53 8 -42 -28 8 -68 46 -62 56 8 13 23 9 54 -14z m1552 -9 c23 -17 32 -19 38 -9 4 7 13 9 20 5 8 -5 7 -12 -4 -24 -11 -12 -14 -28 -10 -49 5 -22 0 -41 -16 -66 -22 -37 -50 -48 -50 -21 0 9 -7 18 -15 21 -18 7 -19 27 -2 55 10 17 10 23 0 26 -7 3 -13 11 -13 18 0 7 6 15 13 18 9 3 9 9 -1 26 -16 28 0 28 40 0z m-1059 -64 c16 -16 42 -46 58 -65 42 -49 279 -290 286 -290 11 0 113 -104 113 -116 0 -33 -60 16 -244 200 -204 204 -286 292 -286 305 0 30 24 18 73 -34z m1249 1 c-4 -32 -31 -75 -48 -76 -16 0 -25 69 -13 92 7 13 19 18 37 16 23 -3 27 -7 24 -32z m-3300 -5 c2 -4 33 -34 70 -65 43 -36 72 -54 82 -50 10 4 19 -2 26 -17 13 -33 29 -50 77 -82 23 -16 60 -46 83 -68 22 -21 47 -39 55 -39 22 0 28 -19 9 -27 -10 -4 -22 0 -29 10 -7 10 -15 17 -18 17 -9 0 -141 92 -152 106 -5 6 -28 23 -50 37 -46 28 -185 161 -185 176 0 13 27 15 32 2z m2972 -36 c3 -8 14 -15 23 -15 44 0 92 -73 57 -87 -20 -7 -17 -18 11 -49 27 -30 34 -74 11 -74 -8 0 -18 5 -21 10 -4 6 -11 7 -17 4 -7 -4 -5 -10 6 -16 20 -11 21 -48 1 -48 -8 0 -15 7 -15 15 0 9 -7 18 -15 21 -8 4 -15 11 -15 16 0 6 -13 27 -30 48 -16 21 -30 42 -30 48 0 5 -7 15 -15 22 -20 16 -19 64 1 95 18 28 39 32 48 10z m-824 -340 c8 -14 30 -35 49 -47 38 -23 141 -118 141 -130 0 -19 -31 -5 -52 22 -12 17 -29 30 -38 30 -18 0 -150 124 -150 140 0 20 37 9 50 -15z m1054 -111 c10 -25 7 -34 -9 -34 -9 0 -15 9 -15 25 0 28 15 34 24 9z m1686 -84 c0 -24 -124 -125 -140 -115 -17 10 -11 23 24 57 52 51 116 83 116 58z m-2160 -66 c0 -17 -22 -14 -28 4 -2 7 3 12 12 12 9 0 16 -7 16 -16z m-256 -19 c29 -27 34 -55 10 -55 -20 0 -53 39 -54 63 0 23 12 21 44 -8z m-1086 -43 c3 -9 -2 -13 -14 -10 -9 1 -19 9 -22 16 -3 9 2 13 14 10 9 -1 19 -9 22 -16z m48 -27 c4 -8 15 -15 25 -15 11 0 22 -6 25 -14 3 -8 14 -16 25 -19 22 -6 26 -27 4 -27 -17 0 -20 -16 -5 -25 6 -3 13 1 16 9 3 9 12 16 19 16 23 0 28 -21 9 -36 -17 -14 -16 -15 20 -9 36 6 39 5 26 -10 -11 -13 -11 -21 -2 -36 25 -39 -45 -11 -97 39 -30 29 -33 37 -23 53 16 26 15 29 -8 29 -11 0 -23 6 -26 14 -3 8 -14 16 -25 19 -10 3 -19 10 -19 16 0 17 30 13 36 -4z m3544 -25 c0 -16 -38 -44 -126 -92 -27 -14 -56 -38 -63 -52 -8 -14 -22 -28 -32 -31 -10 -4 -38 -24 -61 -46 -23 -21 -50 -39 -60 -39 -10 0 -18 -7 -18 -15 0 -17 -26 -20 -35 -4 -4 6 2 13 14 16 22 6 28 27 11 38 -6 4 -5 13 3 26 9 15 19 18 40 13 16 -3 27 -1 27 5 0 6 -4 11 -10 11 -5 0 -10 7 -10 15 0 8 8 15 18 15 10 0 28 13 40 30 18 23 29 29 57 28 43 -2 53 7 37 33 -19 29 -8 37 47 31 42 -4 51 -1 60 16 7 14 17 18 36 15 14 -3 25 -9 25 -13z m-330 -24 c0 -7 -21 -32 -47 -55 -27 -23 -59 -53 -73 -67 -14 -13 -30 -24 -36 -24 -6 0 -16 -11 -22 -25 -7 -14 -18 -28 -26 -31 -8 -3 -35 -32 -62 -65 -26 -32 -55 -59 -65 -59 -10 0 -21 -12 -27 -27 -5 -16 -20 -39 -33 -52 -13 -14 -37 -44 -54 -67 -34 -49 -70 -98 -137 -189 -27 -35 -48 -69 -48 -75 0 -5 -3 -10 -8 -10 -4 0 -18 -20 -32 -45 -13 -24 -30 -47 -37 -49 -7 -3 -13 -12 -13 -21 0 -8 -4 -15 -10 -15 -5 0 -12 -11 -16 -25 -3 -14 -10 -25 -15 -25 -5 0 -14 -11 -19 -25 -5 -14 -17 -25 -26 -25 -31 0 2 87 44 113 6 4 12 17 12 27 0 10 5 22 11 26 6 3 9 16 7 29 -4 18 -1 21 14 17 12 -3 18 1 18 12 0 9 6 19 14 22 23 9 28 35 10 49 -12 8 -14 14 -5 19 6 4 14 0 17 -8 10 -26 19 -19 60 42 22 31 44 62 50 67 7 6 23 28 37 50 14 22 39 55 56 74 28 31 29 36 16 51 -18 19 -10 30 20 30 12 0 37 16 56 35 101 106 260 265 297 298 43 38 72 48 72 23z m-1971 -131 c22 -24 41 -49 41 -54 0 -17 -65 16 -75 38 -5 12 -18 24 -27 27 -10 3 -18 12 -18 20 0 28 38 13 79 -31z m89 -80 c-22 -22 -38 -24 -38 -4 0 5 6 9 14 9 8 0 17 7 20 16 3 8 11 12 16 9 7 -4 2 -16 -12 -30z m125 -57 c24 -47 26 -81 4 -86 -10 -2 -20 4 -23 15 -3 10 -13 33 -21 51 -25 57 11 75 40 20z m1647 -18 c-19 -13 -30 -13 -30 0 0 6 10 10 23 10 18 0 19 -2 7 -10z m-28 -32 c21 -21 16 -38 -10 -38 -9 0 -26 -7 -36 -15 -11 -8 -32 -15 -47 -15 -21 0 -31 -7 -41 -27 -15 -31 -68 -46 -68 -20 0 18 83 87 105 87 12 0 15 6 10 19 -13 41 49 47 87 9z m18 -132 c0 -7 -11 -23 -24 -35 -23 -22 -25 -22 -34 -4 -12 22 -6 35 23 51 22 12 35 7 35 -12z m-210 -253 c0 -10 -7 -27 -15 -38 -86 -116 -135 -156 -135 -110 0 7 14 26 30 42 17 15 30 32 30 38 0 11 71 85 82 85 4 0 8 -8 8 -17z m-2312 -31 c2 -7 -3 -12 -12 -12 -9 0 -16 7 -16 16 0 17 22 14 28 -4z m2075 -201 c-20 -24 -33 -27 -33 -7 0 16 43 48 48 36 2 -5 -5 -18 -15 -29z m-1623 -251 c0 -5 4 -10 10 -10 12 0 80 -68 80 -80 0 -6 4 -10 10 -10 5 0 16 -12 24 -27 8 -16 23 -37 33 -48 74 -82 93 -108 93 -125 0 -13 -7 -20 -20 -20 -11 0 -20 3 -20 8 0 4 -21 30 -45 57 -25 28 -48 58 -51 68 -3 9 -10 17 -15 17 -5 0 -9 7 -9 15 0 7 -6 18 -13 22 -13 9 -62 71 -90 116 -15 23 -15 27 -2 27 8 0 15 -4 15 -10z m468 -252 c15 -15 16 -68 0 -68 -20 0 -48 32 -48 57 0 25 27 32 48 11z m-82 -214 c-5 -13 -10 -14 -18 -6 -6 6 -8 18 -4 28 5 13 10 14 18 6 6 -6 8 -18 4 -28z m272 -256 c-2 -13 -7 -23 -13 -23 -5 0 -11 10 -13 23 -2 15 2 22 13 22 11 0 15 -7 13 -22z m52 -33 c-7 -8 -8 -28 -4 -50 5 -27 3 -40 -7 -46 -30 -19 -39 -10 -39 37 0 35 5 50 22 64 25 20 46 16 28 -5z m657 -232 c-3 -10 -5 -2 -5 17 0 19 2 27 5 18 2 -10 2 -26 0 -35z m-52 -116 c1 -38 7 -62 18 -75 21 -23 22 -75 3 -92 -8 -6 -16 -25 -18 -42 -4 -44 -23 -45 -63 -5 -31 31 -35 41 -35 87 0 31 -4 49 -10 45 -5 -3 -10 -21 -10 -39 0 -46 -29 -71 -63 -55 -36 16 -52 56 -32 79 9 10 27 21 41 24 20 5 24 13 24 44 1 22 9 47 20 60 20 24 40 22 40 -4 0 -22 27 -16 47 11 27 36 37 25 38 -38z"/> <path d="M5030 7655 c0 -8 -7 -15 -15 -15 -8 0 -15 -5 -15 -10 0 -10 -8 -22 -38 -55 -11 -13 -11 -15 2 -15 8 0 21 10 27 22 7 13 25 34 41 48 31 27 35 40 13 40 -8 0 -15 -7 -15 -15z"/> <path d="M445 6659 c-9 -14 3 -59 15 -59 6 0 10 16 10 35 0 34 -12 46 -25 24z"/> <path d="M326 6194 c-3 -9 -2 -23 4 -32 7 -14 9 -10 10 16 0 35 -5 41 -14 16z"/> <path d="M361 5818 c-1 -16 4 -28 9 -28 12 0 12 8 0 35 -8 18 -9 17 -9 -7z"/> <path d="M445 5360 c-4 -6 -3 -16 3 -22 13 -13 23 4 13 21 -7 10 -10 10 -16 1z"/> <path d="M475 5290 c-9 -14 4 -52 16 -45 12 8 12 42 0 50 -5 3 -12 1 -16 -5z"/> <path d="M770 4803 c0 -5 12 -19 25 -32 28 -26 34 -12 8 19 -18 20 -33 26 -33 13z"/> <path d="M1973 3793 c-20 -7 -15 -23 7 -23 11 0 20 4 20 9 0 13 -12 19 -27 14z"/> <path d="M2032 3758 c5 -15 37 -18 41 -3 1 6 -9 12 -22 13 -16 3 -22 -1 -19 -10z"/> <path d="M2100 3645 c13 -14 29 -25 35 -25 6 0 24 -13 40 -30 27 -28 65 -41 65 -22 0 15 -46 52 -63 52 -9 0 -17 3 -17 8 0 9 -57 42 -73 42 -6 0 0 -11 13 -25z"/> <path d="M2262 3548 c3 -7 13 -15 22 -16 12 -3 17 1 14 10 -3 7 -13 15 -22 16 -12 3 -17 -1 -14 -10z"/> <path d="M2992 3009 c2 -7 10 -15 17 -17 8 -3 12 1 9 9 -2 7 -10 15 -17 17 -8 3 -12 -1 -9 -9z"/> <path d="M3046 2966 c21 -15 30 -14 19 3 -3 6 -14 11 -23 11 -13 0 -13 -2 4 -14z"/> <path d="M4340 5031 c0 -24 18 -37 31 -24 13 13 1 43 -17 43 -8 0 -14 -9 -14 -19z"/> <path d="M3476 4841 c-10 -16 5 -41 25 -41 18 0 19 1 3 25 -18 28 -20 29 -28 16z"/> <path d="M3585 4811 c-3 -5 -1 -12 5 -16 12 -7 30 2 30 16 0 12 -27 12 -35 0z"/> <path d="M3630 4601 c0 -22 25 -39 38 -27 8 8 -10 38 -26 44 -7 2 -12 -6 -12 -17z"/> <path d="M7317 8804 c-13 -14 6 -24 44 -24 21 0 39 -4 39 -10 0 -5 8 -10 17 -10 14 0 12 4 -7 25 -22 24 -77 35 -93 19z"/> <path d="M7457 8774 c-14 -15 6 -24 54 -24 36 0 49 4 47 13 -5 13 -89 23 -101 11z"/> <path d="M7582 8741 c2 -7 7 -12 11 -12 12 1 9 15 -3 20 -7 2 -11 -2 -8 -8z"/> <path d="M7640 8725 c0 -15 26 -32 36 -23 2 3 2 13 -2 22 -8 20 -34 21 -34 1z"/> <path d="M7730 8695 c0 -14 29 -35 49 -35 17 0 13 21 -6 36 -24 18 -43 17 -43 -1z"/> <path d="M2115 8351 c-15 -6 -11 -9 23 -14 51 -9 130 2 110 14 -16 11 -106 10 -133 0z"/> <path d="M8060 8345 c0 -8 7 -15 15 -15 8 0 15 -4 15 -10 0 -5 7 -10 16 -10 13 0 11 5 -7 25 -28 28 -39 31 -39 10z"/> <path d="M1941 8321 c-11 -7 -9 -10 8 -16 25 -8 64 3 56 16 -8 11 -46 12 -64 0z"/> <path d="M1267 8289 c-38 -32 -45 -49 -10 -30 10 6 30 15 46 21 15 5 27 16 27 25 0 23 -22 18 -63 -16z"/> <path d="M1410 8285 c0 -9 5 -15 11 -13 6 2 11 8 11 13 0 5 -5 11 -11 13 -6 2 -11 -4 -11 -13z"/> <path d="M1825 8291 c-3 -5 -1 -12 5 -16 14 -9 52 4 45 16 -8 12 -42 12 -50 0z"/> <path d="M1725 8260 c-3 -5 3 -10 15 -10 12 0 18 5 15 10 -3 6 -10 10 -15 10 -5 0 -12 -4 -15 -10z"/> <path d="M1866 8201 c-8 -13 23 -23 47 -15 16 5 17 8 6 15 -18 11 -46 11 -53 0z"/> <path d="M2085 8171 c-19 -8 -19 -8 3 -15 32 -11 101 2 81 15 -17 10 -56 11 -84 0z"/> <path d="M1410 8135 c-7 -8 -18 -15 -25 -15 -7 0 -18 -7 -25 -15 -7 -8 -25 -15 -41 -15 -21 0 -32 -7 -44 -30 -8 -16 -15 -31 -15 -34 0 -10 35 7 70 34 19 15 42 30 50 33 8 4 22 11 30 16 8 5 23 12 33 15 9 3 17 10 17 16 0 15 -36 12 -50 -5z"/> <path d="M1932 8143 c-20 -8 -3 -23 28 -23 33 0 48 15 24 24 -18 7 -33 7 -52 -1z"/> <path d="M1500 8090 c-19 -11 -46 -25 -60 -32 -50 -26 -160 -101 -160 -109 0 -14 27 -10 43 5 8 8 43 29 78 46 35 18 71 36 79 41 8 5 30 15 48 23 17 8 32 22 32 30 0 21 -17 19 -60 -4z"/> <path d="M1125 8055 l-30 -24 27 -1 c15 0 31 6 35 13 4 8 17 19 28 25 19 11 19 11 -5 12 -14 0 -38 -11 -55 -25z"/> <path d="M1037 7864 c-12 -15 -31 -35 -41 -45 -30 -29 -10 -23 40 11 24 17 44 37 44 45 0 23 -18 18 -43 -11z"/> </g> </svg> 