 <svg  version="1.0" xmlns="http://www.w3.org/2000/svg"  width="900.000000pt" height="720.000000pt" viewBox="0 0 900.000000 720.000000"  preserveAspectRatio="xMidYMid meet">  <g transform="translate(0.000000,720.000000) scale(0.100000,-0.100000)" fill="#ff0000" stroke="none"> <path d="M6235 6625 c-60 -6 -120 -15 -132 -19 -12 -4 -44 -11 -70 -16 -78 -14 -277 -80 -329 -109 -11 -5 -50 -25 -89 -43 -83 -40 -214 -116 -233 -135 -7 -7 -17 -13 -22 -13 -5 0 -15 -6 -22 -13 -7 -8 -33 -26 -56 -41 -112 -70 -351 -292 -488 -451 -87 -101 -254 -327 -277 -375 -12 -24 -32 -57 -44 -71 -69 -88 -291 -574 -310 -682 -11 -58 -30 -45 -79 53 -15 30 -52 95 -81 143 -29 48 -53 90 -53 93 0 3 -16 26 -35 52 -19 26 -47 64 -62 85 -211 288 -485 523 -762 657 -9 4 -29 14 -46 22 -45 23 -200 73 -280 91 -564 129 -1084 -99 -1312 -573 -81 -168 -113 -320 -113 -537 0 -153 13 -263 47 -398 21 -85 75 -258 84 -270 4 -6 15 -33 24 -60 26 -78 139 -305 207 -418 76 -125 129 -203 227 -331 42 -54 83 -108 91 -120 54 -77 352 -379 510 -515 116 -101 338 -275 392 -306 9 -5 50 -32 90 -60 40 -27 80 -53 88 -58 8 -4 29 -16 45 -27 17 -11 39 -24 50 -30 11 -6 47 -26 80 -46 139 -82 460 -230 570 -264 138 -42 217 -50 253 -24 23 16 21 34 -3 34 -28 0 -287 132 -326 166 -8 8 -19 14 -23 14 -5 0 -28 14 -53 30 -24 17 -46 30 -47 30 -2 0 -74 47 -159 104 -578 387 -1028 801 -1289 1186 -10 14 -31 44 -48 68 -16 23 -30 44 -30 47 0 2 -17 30 -38 62 -74 111 -207 371 -233 453 -4 14 -17 50 -28 80 -24 62 -44 135 -73 265 -28 125 -30 453 -4 565 57 237 130 378 269 513 43 42 85 77 92 77 7 0 18 6 24 14 14 16 133 67 216 92 90 27 333 25 435 -4 248 -70 455 -193 676 -404 137 -131 288 -317 391 -482 39 -63 146 -277 166 -331 52 -147 87 -282 87 -337 0 -42 54 -78 117 -78 71 0 82 18 75 129 -10 172 36 410 118 612 35 86 142 300 172 345 15 23 28 44 28 48 0 6 108 162 153 221 155 200 408 454 547 547 14 10 45 31 69 49 111 78 343 204 451 244 447 167 764 188 1012 67 129 -64 202 -141 255 -272 43 -107 58 -239 43 -383 -12 -129 -37 -273 -56 -335 -8 -23 -14 -50 -14 -60 0 -9 -12 -48 -26 -87 -14 -38 -29 -83 -34 -100 -26 -97 -237 -529 -286 -586 -8 -8 -14 -18 -14 -22 0 -8 -137 -210 -193 -285 -23 -31 -49 -66 -57 -78 -29 -42 -144 -189 -159 -205 -9 -8 -29 -33 -46 -54 -44 -56 -117 -143 -150 -179 -6 -6 -69 -76 -140 -155 -71 -80 -136 -152 -144 -161 -9 -9 -54 -58 -101 -110 -47 -51 -101 -109 -120 -130 -74 -77 -130 -139 -220 -240 -52 -58 -99 -110 -104 -116 -150 -159 -382 -455 -509 -650 -88 -136 -90 -138 -150 -261 -21 -43 -43 -86 -48 -95 -9 -19 -29 -72 -55 -148 -42 -124 -71 -278 -80 -425 -9 -145 29 -376 78 -465 41 -77 64 -94 104 -80 15 6 24 27 38 86 10 44 24 97 30 119 7 22 21 67 31 100 18 63 38 118 61 173 8 18 14 37 14 42 0 13 102 238 131 290 5 8 20 38 34 65 15 28 35 64 45 80 11 17 23 37 27 45 6 12 113 176 173 264 18 27 135 172 166 206 93 102 237 251 474 490 341 343 449 455 575 595 55 61 102 112 105 115 15 12 250 291 295 350 28 36 57 72 65 81 8 10 25 32 38 50 13 19 52 73 88 121 35 48 64 90 64 94 0 3 13 23 28 43 25 31 45 61 124 189 23 38 46 79 114 212 293 566 376 1122 227 1525 -67 180 -205 366 -352 475 -36 27 -72 55 -79 61 -29 24 -246 129 -269 129 -7 0 -27 6 -45 14 -52 22 -123 36 -253 52 -138 16 -179 16 -330 -1z"/> </g> </svg> 